<?xml version="1.0" standalone="no"?>
<!DOCTYPE svg PUBLIC "-//W3C//DTD SVG 20010904//EN"
 "http://www.w3.org/TR/2001/REC-SVG-20010904/DTD/svg10.dtd">
<svg version="1.0" xmlns="http://www.w3.org/2000/svg"
 width="332.000000pt" height="346.000000pt" viewBox="0 0 332.000000 346.000000"
 preserveAspectRatio="xMidYMid meet">

<g transform="translate(0.000000,346.000000) scale(0.100000,-0.100000)"
fill="#000000" stroke="none">
<path d="M1628 3276 c-217 -91 -337 -296 -326 -556 5 -109 16 -136 64 -156 29
-12 39 -12 68 0 50 21 60 47 57 151 -5 198 60 316 213 384 66 30 86 56 86 112
0 32 -38 79 -64 79 -8 0 -20 2 -28 5 -7 2 -39 -6 -70 -19z"/>
<path d="M706 2886 c-78 -17 -111 -52 -103 -109 11 -79 45 -91 198 -72 113 13
188 -25 235 -120 35 -73 68 -99 114 -91 156 25 62 278 -137 368 -54 24 -83 31
-157 34 -55 2 -115 -2 -150 -10z"/>
<path d="M1645 2595 c-20 -14 -69 -51 -107 -82 -68 -54 -72 -56 -103 -45 -40
15 -120 15 -148 1 -12 -6 -40 -28 -62 -49 l-40 -37 -124 18 c-136 20 -161 16
-161 -26 0 -21 35 -159 90 -357 6 -21 20 -43 31 -49 24 -12 35 -6 161 93 l86
68 49 -11 c63 -15 122 1 172 46 l38 35 132 -20 c72 -10 138 -17 146 -13 9 3
18 15 21 27 8 32 -93 398 -113 414 -22 16 -25 16 -68 -13z"/>
<path d="M1937 2348 c14 -51 26 -93 26 -93 25 -5 153 -73 217 -114 203 -132
358 -354 415 -593 8 -35 18 -106 21 -159 l7 -95 49 -18 c158 -56 207 -230 101
-356 -50 -61 -152 -86 -240 -61 -32 9 -33 8 -86 -67 -206 -292 -539 -449 -892
-421 -55 4 -113 10 -130 14 -248 57 -451 185 -593 374 -56 74 -133 218 -147
272 -6 25 -9 26 -75 26 -56 0 -76 5 -114 27 -62 36 -98 92 -104 161 -7 81 4
118 48 168 40 45 79 65 165 83 l39 9 24 89 c30 116 86 228 173 345 l21 29 -23
91 c-13 50 -26 91 -30 91 -7 0 -79 -84 -131 -153 -47 -63 -113 -190 -143 -275
-22 -65 -25 -68 -84 -97 -96 -47 -145 -95 -188 -182 -36 -72 -38 -82 -38 -167
1 -114 26 -184 95 -259 54 -59 119 -98 196 -117 50 -13 52 -15 86 -84 77 -155
221 -314 383 -421 368 -245 844 -258 1235 -33 98 56 225 163 293 245 57 69 62
73 101 73 94 0 203 46 267 112 150 155 151 395 1 543 -26 26 -59 53 -73 61
-23 11 -28 22 -34 71 -18 156 -81 332 -167 471 -66 106 -227 272 -326 337
-106 69 -254 137 -344 159 l-27 6 26 -92z"/>
<path d="M1223 1479 c-20 -13 -38 -37 -49 -65 -22 -58 -8 -109 41 -153 81 -70
208 -20 222 88 7 49 -20 107 -61 132 -42 25 -112 25 -153 -2z"/>
<path d="M1903 1429 c-61 -18 -105 -100 -89 -166 9 -34 65 -90 99 -99 72 -17
159 38 173 110 10 56 -25 122 -78 146 -47 22 -58 22 -105 9z"/>
<path d="M1237 923 c-28 -27 29 -169 93 -233 23 -23 67 -54 99 -69 49 -23 68
-26 161 -26 94 0 110 3 155 27 66 34 130 100 162 166 36 73 25 83 -65 54 -186
-60 -370 -41 -527 53 -60 37 -67 39 -78 28z"/>
</g>
</svg>
